<!DOCTYPE svg PUBLIC "-//W3C//DTD SVG 1.1//EN" "http://www.w3.org/Graphics/SVG/1.1/DTD/svg11.dtd">
<!-- Uploaded to: SVG Repo, www.svgrepo.com, Transformed by: SVG Repo Mixer Tools -->
<svg height="256px" width="256px" version="1.1" id="Capa_1" xmlns="http://www.w3.org/2000/svg" xmlns:xlink="http://www.w3.org/1999/xlink" viewBox="-39.96 -39.96 479.48 479.48" xml:space="preserve" fill="#000000" transform="rotate(0)matrix(1, 0, 0, 1, 0, 0)" stroke="#000000" stroke-width="1.997775">
<g id="SVGRepo_bgCarrier" stroke-width="0"/>
<g id="SVGRepo_tracerCarrier" stroke-linecap="round" stroke-linejoin="round" stroke="#CCCCCC" stroke-width="3.99555"/>
<g id="SVGRepo_iconCarrier"> <g id="XMLID_4_"> <polygon id="XMLID_521_" style="fill:#99EFF2;" points="243.343,280.096 199.555,257.079 199.555,289.053 199.555,289.054 199.777,289.171 280.76,331.759 280.744,331.738 280.783,331.759 265.436,241.149 235,231.454 "/> <polygon id="XMLID_522_" style="fill:#933EC5;" points="240.336,164.027 330.988,177.25 265.436,241.149 299.668,252.292 299.69,252.271 299.691,252.271 399.555,154.925 261.512,134.866 240.325,164.006 "/> <polygon id="XMLID_523_" style="fill:#00D7DF;" points="299.668,252.292 265.436,241.149 280.783,331.759 280.744,331.738 280.76,331.759 199.777,289.171 199.777,324.865 199.777,324.866 323.211,389.777 323.188,389.746 323.248,389.777 "/> <polygon id="XMLID_524_" style="fill:#64C37D;" points="199.777,289.171 199.555,289.054 118.323,331.759 133.837,241.308 133.737,241.211 99.924,252.185 99.906,252.287 99.888,252.292 76.308,389.777 199.777,324.866 199.777,324.865 "/> <polygon id="XMLID_525_" style="fill:#FF9811;" points="99.924,252.185 133.737,241.211 68.121,177.25 68.205,177.238 68.159,177.224 159.275,164.031 159.287,164.008 138.099,134.825 138.061,134.831 0.056,154.883 0.127,154.906 0,154.925 99.888,252.292 99.906,252.287 "/> <polygon id="XMLID_526_" style="fill:#EA348B;" points="159.287,164.008 199.555,81.759 240.325,164.006 261.512,134.866 199.777,9.777 138.061,134.831 138.099,134.825 "/> <polygon id="XMLID_527_" style="fill:#64C37D;" points="133.86,241.237 164.114,231.451 164.12,231.417 "/> <polygon id="XMLID_530_" style="fill:#7C84E8;" points="330.988,177.25 240.336,164.027 221.556,189.764 270.367,196.842 235,231.454 265.436,241.149 "/> <polygon id="XMLID_531_" style="fill:#91DC5A;" points="199.555,257.079 199.517,257.059 155.779,280.066 164.114,231.451 133.86,241.237 133.85,241.304 133.837,241.308 118.323,331.759 199.555,289.054 199.555,289.053 "/> <polygon id="XMLID_532_" style="fill:#FFDA44;" points="133.86,241.237 164.12,231.417 128.749,196.82 177.745,189.636 159.301,164.027 159.275,164.031 68.159,177.224 68.205,177.238 68.121,177.25 133.737,241.211 133.837,241.308 133.85,241.304 "/> <polygon id="XMLID_533_" style="fill:#F7AED1;" points="177.745,189.636 199.564,145.392 221.556,189.764 240.336,164.027 240.325,164.006 199.555,81.759 159.287,164.008 159.275,164.031 159.301,164.027 "/> </g> </g>
</svg>